<?xml version="1.0" encoding="utf-8"?>
<!-- Generator: Adobe Illustrator 22.1.0, SVG Export Plug-In . SVG Version: 6.00 Build 0)  -->
<svg version="1.1" id="Layer_1" xmlns="http://www.w3.org/2000/svg" xmlns:xlink="http://www.w3.org/1999/xlink" x="0px" y="0px"
	 viewBox="0 0 311 66" style="enable-background:new 0 0 311 66;" xml:space="preserve">
<style type="text/css">
	.st0{fill:#FFFFFF;}
	.st1{fill:none;}
	.st2{fill:#E31837;}
	.st3{fill:#006491;}
</style>
<title>RGB_Blue_Type_Horz</title>
<g>
	<path class="st0" d="M95.8,27.7H80.5c-0.5,0-0.9,0.4-0.9,0.9l0,0v34.6c0,0.5,0.4,0.9,0.9,0.9l0,0h15.4c12.1,0,19.9-7.2,19.9-18.2
		S108,27.7,95.8,27.7 M95.8,54.5h-5.3V37.3h5.3c5.5,0,8.7,3.2,8.7,8.6C104.6,50.2,101.6,54.5,95.8,54.5"/>
	<path class="st0" d="M183.9,37.1c-3.6,0-7.1,1.7-9.2,4.6c-1.1-3.1-3.7-4.6-7.6-4.6c-4.3,0-7.6,2.2-8.7,3.7v-2.1
		c0-0.5-0.4-0.9-0.9-0.9l0,0h-8c-0.5,0-0.9,0.4-0.9,0.9l0,0v24.5c0,0.5,0.4,0.9,0.9,0.9h8c0.5,0,0.9-0.4,0.9-0.9V47.9l0,0
		c0.9-1.3,2.4-2,4-2.1c1.9,0,3,1.1,3,3v14.5c0,0.5,0.4,0.9,0.9,0.9h8c0.5,0,0.9-0.4,0.9-0.9V47.9c0.9-1.3,2.4-2.1,4-2.1
		c1.9,0,3,1.1,3,3v14.5c0,0.5,0.4,0.9,0.9,0.9h8c0.5,0,0.9-0.4,0.9-0.9V45C192,39.9,189.1,37.1,183.9,37.1"/>
	<path class="st0" d="M205,37.8h-8c-0.5,0-0.9,0.4-0.9,0.9l0,0v24.5c0,0.5,0.4,0.9,0.9,0.9h8c0.5,0,0.9-0.4,0.9-0.9V38.7
		C205.9,38.2,205.5,37.8,205,37.8L205,37.8"/>
	<path class="st0" d="M201.2,24.8c-3,0-5.5,2.5-5.5,5.5s2.5,5.5,5.5,5.5s5.5-2.5,5.5-5.5S204.3,24.8,201.2,24.8"/>
	<path class="st0" d="M229,37.1c-5.1,0-7.9,2.3-9.1,3.7v-2.1c0-0.5-0.4-0.9-0.9-0.9l0,0h-8c-0.5,0-0.9,0.4-0.9,0.9l0,0v24.5
		c0,0.5,0.4,0.9,0.9,0.9h8c0.5,0,0.9-0.4,0.9-0.9V47.9c1-1.3,2.5-2.1,4.2-2.1c2.5,0,3.8,1.3,3.8,3.8v13.7c0,0.5,0.4,0.9,0.9,0.9l0,0
		h8c0.5,0,0.9-0.4,0.9-0.9V45.4C237.8,40.2,234.5,37.1,229,37.1"/>
	<path class="st0" d="M131.7,37c-7.7,0-13.9,6.2-13.9,13.9s6.2,13.9,13.9,13.9s13.9-6.2,13.9-13.9C145.6,43.2,139.4,37,131.7,37
		 M131.7,55.5c-2.6,0-4.8-2.1-4.8-4.8c0-2.6,2.1-4.8,4.8-4.8s4.8,2.1,4.8,4.8C136.5,53.3,134.4,55.4,131.7,55.5L131.7,55.5"/>
	<path class="st0" d="M254.6,37c-7.7,0-13.9,6.2-13.9,13.9s6.2,13.9,13.9,13.9c7.7,0,13.9-6.2,13.9-13.9l0,0
		C268.5,43.3,262.3,37,254.6,37L254.6,37 M254.6,55.5c-2.6,0-4.8-2.1-4.8-4.7c0-2.6,2.1-4.8,4.7-4.8c2.6,0,4.8,2.1,4.8,4.7l0,0
		C259.3,53.3,257.2,55.5,254.6,55.5L254.6,55.5"/>
	<path class="st0" d="M276.2,29.3L276.2,29.3L276.2,29.3C276.2,29.3,276.2,29.2,276.2,29.3L276.2,29.3c-0.8-2.9-3.6-4.8-6.6-4.2
		c-3,0.6-4.9,3.4-4.3,6.2c0.5,2.3,2.5,4,4.9,4c-0.2,0.9-0.8,1.7-1.7,2.2c-0.3,0.2-0.3,0.5-0.2,0.8l0,0l0.6,0.9
		c0.1,0.3,0.5,0.4,0.8,0.3C275.8,36.9,276.8,31.7,276.2,29.3z"/>
	<path class="st0" d="M283.3,45.6c0-1,1.3-1.4,2.9-1.4c2.5-0.1,5,0.7,7,2.2c0.2,0.1,0.5,0.2,0.7,0.1c0.3-0.1,0.5-0.2,0.6-0.4
		l2.7-4.7c0.2-0.4,0.1-1-0.3-1.2c-3.3-2.1-7.2-3.1-11.1-3c-8.1,0-12.5,3.8-11.8,9.3c1.3,9.7,16.3,6.4,16.1,9.7
		c0,0.8-1.4,1.3-3.7,1.3c-3,0-6.4-1.5-8.5-2.8c-0.2-0.1-0.5-0.2-0.7-0.1c-0.3,0-0.5,0.2-0.6,0.4l-3.1,5.2c-0.2,0.4-0.1,0.9,0.3,1.2
		c3,2,7.8,3.4,12,3.4c8.1,0,12.8-3.5,12.8-9.2C298.6,45,283.3,48.2,283.3,45.6"/>
	<path class="st1" d="M20.6,38.8c-2.9,0-5.2,2.3-5.2,5.2s2.3,5.2,5.2,5.2s5.2-2.3,5.2-5.2c0-1.4-0.5-2.7-1.5-3.7S22,38.8,20.6,38.8z
		"/>
	<path class="st1" d="M35.9,49.4c2.9,0,5.2-2.3,5.2-5.2S38.8,39,35.9,39s-5.2,2.3-5.2,5.2c0,1.4,0.5,2.7,1.5,3.7
		C33.2,48.8,34.5,49.4,35.9,49.4z"/>
	<path class="st1" d="M52,2.4c-0.9-0.9-2.3-0.9-3.1,0l-15,15l-4.4,4.4l21.1,21.1l1.8-1.8L70,23.5c0.9-0.9,0.9-2.3,0-3.1l0,0L52,2.4z
		"/>
	<path class="st0" d="M71.2,19.1l-18-17.9c-1.6-1.6-4.1-1.6-5.7,0l-15.1,15l-25,25c-1.6,1.6-1.6,4.1,0,5.7l0,0l17.9,17.9
		c1.6,1.6,4.1,1.6,5.7,0l0,0l22.4-22.4L71,24.8C72.7,23.2,72.7,20.7,71.2,19.1z"/>
	<path class="st2" d="M69.9,20.4L52,2.4c-0.9-0.9-2.3-0.9-3.1,0l0,0L29.4,21.8l21.1,21.1l19.4-19.4C70.8,22.7,70.8,21.3,69.9,20.4
		L69.9,20.4z M54.1,25.6c-2,2-5.3,2-7.3,0s-2-5.3,0-7.3s5.3-2,7.3,0c1,1,1.5,2.3,1.5,3.7C55.6,23.3,55.1,24.6,54.1,25.6z"/>
	<path class="st3" d="M8.8,42.5c-0.9,0.9-0.9,2.3,0,3.1l0,0l17.9,17.9c0.9,0.9,2.3,0.9,3.1,0l19.4-19.4l-21.1-21L8.8,42.5z
		 M24.3,47.7c-2,2-5.3,2-7.4,0c-2-2-2-5.3,0-7.4s5.3-2,7.4,0l0,0C26.3,42.4,26.3,45.6,24.3,47.7z M32.2,40.5c2-2,5.3-2,7.4,0
		c2,2,2,5.3,0,7.4c-2,2-5.3,2-7.4,0c-1-1-1.5-2.3-1.5-3.7S31.2,41.5,32.2,40.5L32.2,40.5z"/>
	<path class="st0" d="M304.7,38.7c0,1-0.5,2-1.4,2.5c-0.4,0.3-0.9,0.4-1.4,0.4c-1.6,0-2.9-1.3-2.9-2.9c0-1.6,1.3-2.9,2.9-2.9
		c0.5,0,1,0.1,1.4,0.4c0.4,0.2,0.8,0.6,1,1C304.5,37.7,304.7,38.2,304.7,38.7z M304.1,38.7c0-0.6-0.2-1.2-0.7-1.6
		c-0.9-0.9-2.3-0.9-3.2,0l0,0c-0.9,0.9-0.9,2.4,0,3.3c0.9,0.9,2.3,0.9,3.2,0l0,0C303.9,39.9,304.1,39.3,304.1,38.7L304.1,38.7z
		 M300.5,37.2h1.4c0.3,0,0.6,0.1,0.8,0.2c0.2,0.2,0.3,0.4,0.3,0.6c0,0.2-0.1,0.4-0.2,0.5c-0.2,0.2-0.4,0.3-0.6,0.3
		c0.1,0,0.2,0.1,0.3,0.1c0.1,0.1,0.2,0.2,0.2,0.3l0.5,0.9h-0.9c-0.2-0.4-0.4-0.7-0.6-1c-0.1-0.1-0.2-0.2-0.3-0.2h-0.1v1.2h-0.8
		L300.5,37.2z M301.3,38.4h0.3c0.2,0,0.3,0,0.5-0.1c0.1-0.1,0.1-0.2,0.1-0.3s0-0.2-0.1-0.3s-0.3-0.1-0.4-0.1h-0.4V38.4z"/>
</g>
</svg>
